<svg width="834" height="429" viewBox="0 0 834 429" fill="none" xmlns="http://www.w3.org/2000/svg">
<mask id="mask0_240_576" style="mask-type:luminance" maskUnits="userSpaceOnUse" x="-606" y="0" width="1440" height="560">
<path d="M834 0L-606 0L-606 560L834 560V0Z" fill="white"/>
</mask>
<g mask="url(#mask0_240_576)">
<mask id="mask1_240_576" style="mask-type:luminance" maskUnits="userSpaceOnUse" x="-606" y="0" width="1440" height="573">
<path d="M834 0L-606 0L-606 560L834 560V0Z" fill="white"/>
<path d="M101.5 430C101.5 430.663 101.763 431.299 102.232 431.768C102.701 432.237 103.337 432.5 104 432.5C104.663 432.5 105.299 432.237 105.768 431.768C106.237 431.299 106.5 430.663 106.5 430C106.5 429.337 106.237 428.701 105.768 428.232C105.299 427.763 104.663 427.5 104 427.5C103.337 427.5 102.701 427.763 102.232 428.232C101.763 428.701 101.5 429.337 101.5 430Z" fill="black"/>
<path d="M121.5 310C121.5 310.663 121.763 311.299 122.232 311.768C122.701 312.237 123.337 312.5 124 312.5C124.663 312.5 125.299 312.237 125.768 311.768C126.237 311.299 126.5 310.663 126.5 310C126.5 309.337 126.237 308.701 125.768 308.232C125.299 307.763 124.663 307.5 124 307.5C123.337 307.5 122.701 307.763 122.232 308.232C121.763 308.701 121.5 309.337 121.5 310ZM61.5 450C61.5 450.663 61.7634 451.299 62.2322 451.768C62.7011 452.237 63.337 452.5 64 452.5C64.663 452.5 65.2989 452.237 65.7678 451.768C66.2366 451.299 66.5 450.663 66.5 450C66.5 449.337 66.2366 448.701 65.7678 448.232C65.2989 447.763 64.663 447.5 64 447.5C63.337 447.5 62.7011 447.763 62.2322 448.232C61.7634 448.701 61.5 449.337 61.5 450ZM61.5 510C61.5 510.663 61.7634 511.299 62.2322 511.768C62.7011 512.237 63.337 512.5 64 512.5C64.663 512.5 65.2989 512.237 65.7678 511.768C66.2366 511.299 66.5 510.663 66.5 510C66.5 509.337 66.2366 508.701 65.7678 508.232C65.2989 507.763 64.663 507.5 64 507.5C63.337 507.5 62.7011 507.763 62.2322 508.232C61.7634 508.701 61.5 509.337 61.5 510ZM61.5 330C61.5 330.663 61.7634 331.299 62.2322 331.768C62.7011 332.237 63.337 332.5 64 332.5C64.663 332.5 65.2989 332.237 65.7678 331.768C66.2366 331.299 66.5 330.663 66.5 330C66.5 329.337 66.2366 328.701 65.7678 328.232C65.2989 327.763 64.663 327.5 64 327.5C63.337 327.5 62.7011 327.763 62.2322 328.232C61.7634 328.701 61.5 329.337 61.5 330Z" fill="black"/>
<path d="M181.5 270C181.5 270.663 181.763 271.299 182.232 271.768C182.701 272.237 183.337 272.5 184 272.5C184.663 272.5 185.299 272.237 185.768 271.768C186.237 271.299 186.5 270.663 186.5 270C186.5 269.337 186.237 268.701 185.768 268.232C185.299 267.763 184.663 267.5 184 267.5C183.337 267.5 182.701 267.763 182.232 268.232C181.763 268.701 181.5 269.337 181.5 270ZM161.5 370C161.5 370.663 161.763 371.299 162.232 371.768C162.701 372.237 163.337 372.5 164 372.5C164.663 372.5 165.299 372.237 165.768 371.768C166.237 371.299 166.5 370.663 166.5 370C166.5 369.337 166.237 368.701 165.768 368.232C165.299 367.763 164.663 367.5 164 367.5C163.337 367.5 162.701 367.763 162.232 368.232C161.763 368.701 161.5 369.337 161.5 370ZM141.5 270C141.5 270.663 141.763 271.299 142.232 271.768C142.701 272.237 143.337 272.5 144 272.5C144.663 272.5 145.299 272.237 145.768 271.768C146.237 271.299 146.5 270.663 146.5 270C146.5 269.337 146.237 268.701 145.768 268.232C145.299 267.763 144.663 267.5 144 267.5C143.337 267.5 142.701 267.763 142.232 268.232C141.763 268.701 141.5 269.337 141.5 270ZM201.5 270C201.5 270.663 201.763 271.299 202.232 271.768C202.701 272.237 203.337 272.5 204 272.5C204.663 272.5 205.299 272.237 205.768 271.768C206.237 271.299 206.5 270.663 206.5 270C206.5 269.337 206.237 268.701 205.768 268.232C205.299 267.763 204.663 267.5 204 267.5C203.337 267.5 202.701 267.763 202.232 268.232C201.763 268.701 201.5 269.337 201.5 270ZM121.5 270C121.5 270.663 121.763 271.299 122.232 271.768C122.701 272.237 123.337 272.5 124 272.5C124.663 272.5 125.299 272.237 125.768 271.768C126.237 271.299 126.5 270.663 126.5 270C126.5 269.337 126.237 268.701 125.768 268.232C125.299 267.763 124.663 267.5 124 267.5C123.337 267.5 122.701 267.763 122.232 268.232C121.763 268.701 121.5 269.337 121.5 270Z" fill="black"/>
<path d="M1.5 450C1.5 450.663 1.7634 451.299 2.23224 451.768C2.70108 452.237 3.33696 452.5 4 452.5C4.66304 452.5 5.29892 452.237 5.76776 451.768C6.2366 451.299 6.5 450.663 6.5 450C6.5 449.337 6.2366 448.701 5.76776 448.232C5.29892 447.763 4.66304 447.5 4 447.5C3.33696 447.5 2.70108 447.763 2.23224 448.232C1.7634 448.701 1.5 449.337 1.5 450ZM-18.5 490C-18.5 490.663 -18.2366 491.299 -17.7678 491.768C-17.2989 492.237 -16.663 492.5 -16 492.5C-15.337 492.5 -14.7011 492.237 -14.2322 491.768C-13.7634 491.299 -13.5 490.663 -13.5 490C-13.5 489.337 -13.7634 488.701 -14.2322 488.232C-14.7011 487.763 -15.337 487.5 -16 487.5C-16.663 487.5 -17.2989 487.763 -17.7678 488.232C-18.2366 488.701 -18.5 489.337 -18.5 490ZM1.5 530C1.5 530.663 1.7634 531.299 2.23224 531.768C2.70108 532.237 3.33696 532.5 4 532.5C4.66304 532.5 5.29892 532.237 5.76776 531.768C6.2366 531.299 6.5 530.663 6.5 530C6.5 529.337 6.2366 528.701 5.76776 528.232C5.29892 527.763 4.66304 527.5 4 527.5C3.33696 527.5 2.70108 527.763 2.23224 528.232C1.7634 528.701 1.5 529.337 1.5 530ZM-18.5 430C-18.5 430.663 -18.2366 431.299 -17.7678 431.768C-17.2989 432.237 -16.663 432.5 -16 432.5C-15.337 432.5 -14.7011 432.237 -14.2322 431.768C-13.7634 431.299 -13.5 430.663 -13.5 430C-13.5 429.337 -13.7634 428.701 -14.2322 428.232C-14.7011 427.763 -15.337 427.5 -16 427.5C-16.663 427.5 -17.2989 427.763 -17.7678 428.232C-18.2366 428.701 -18.5 429.337 -18.5 430Z" fill="black"/>
<path d="M201.5 310C201.5 310.663 201.763 311.299 202.232 311.768C202.701 312.237 203.337 312.5 204 312.5C204.663 312.5 205.299 312.237 205.768 311.768C206.237 311.299 206.5 310.663 206.5 310C206.5 309.337 206.237 308.701 205.768 308.232C205.299 307.763 204.663 307.5 204 307.5C203.337 307.5 202.701 307.763 202.232 308.232C201.763 308.701 201.5 309.337 201.5 310ZM241.5 350C241.5 350.663 241.763 351.299 242.232 351.768C242.701 352.237 243.337 352.5 244 352.5C244.663 352.5 245.299 352.237 245.768 351.768C246.237 351.299 246.5 350.663 246.5 350C246.5 349.337 246.237 348.701 245.768 348.232C245.299 347.763 244.663 347.5 244 347.5C243.337 347.5 242.701 347.763 242.232 348.232C241.763 348.701 241.5 349.337 241.5 350ZM221.5 330C221.5 330.663 221.763 331.299 222.232 331.768C222.701 332.237 223.337 332.5 224 332.5C224.663 332.5 225.299 332.237 225.768 331.768C226.237 331.299 226.5 330.663 226.5 330C226.5 329.337 226.237 328.701 225.768 328.232C225.299 327.763 224.663 327.5 224 327.5C223.337 327.5 222.701 327.763 222.232 328.232C221.763 328.701 221.5 329.337 221.5 330ZM221.5 390C221.5 390.663 221.763 391.299 222.232 391.768C222.701 392.237 223.337 392.5 224 392.5C224.663 392.5 225.299 392.237 225.768 391.768C226.237 391.299 226.5 390.663 226.5 390C226.5 389.337 226.237 388.701 225.768 388.232C225.299 387.763 224.663 387.5 224 387.5C223.337 387.5 222.701 387.763 222.232 388.232C221.763 388.701 221.5 389.337 221.5 390Z" fill="black"/>
<path d="M241.5 470C241.5 470.663 241.763 471.299 242.232 471.768C242.701 472.237 243.337 472.5 244 472.5C244.663 472.5 245.299 472.237 245.768 471.768C246.237 471.299 246.5 470.663 246.5 470C246.5 469.337 246.237 468.701 245.768 468.232C245.299 467.763 244.663 467.5 244 467.5C243.337 467.5 242.701 467.763 242.232 468.232C241.763 468.701 241.5 469.337 241.5 470ZM241.5 430C241.5 430.663 241.763 431.299 242.232 431.768C242.701 432.237 243.337 432.5 244 432.5C244.663 432.5 245.299 432.237 245.768 431.768C246.237 431.299 246.5 430.663 246.5 430C246.5 429.337 246.237 428.701 245.768 428.232C245.299 427.763 244.663 427.5 244 427.5C243.337 427.5 242.701 427.763 242.232 428.232C241.763 428.701 241.5 429.337 241.5 430Z" fill="black"/>
<path d="M361.5 330C361.5 330.663 361.763 331.299 362.232 331.768C362.701 332.237 363.337 332.5 364 332.5C364.663 332.5 365.299 332.237 365.768 331.768C366.237 331.299 366.5 330.663 366.5 330C366.5 329.337 366.237 328.701 365.768 328.232C365.299 327.763 364.663 327.5 364 327.5C363.337 327.5 362.701 327.763 362.232 328.232C361.763 328.701 361.5 329.337 361.5 330ZM321.5 410C321.5 410.663 321.763 411.299 322.232 411.768C322.701 412.237 323.337 412.5 324 412.5C324.663 412.5 325.299 412.237 325.768 411.768C326.237 411.299 326.5 410.663 326.5 410C326.5 409.337 326.237 408.701 325.768 408.232C325.299 407.763 324.663 407.5 324 407.5C323.337 407.5 322.701 407.763 322.232 408.232C321.763 408.701 321.5 409.337 321.5 410ZM321.5 370C321.5 370.663 321.763 371.299 322.232 371.768C322.701 372.237 323.337 372.5 324 372.5C324.663 372.5 325.299 372.237 325.768 371.768C326.237 371.299 326.5 370.663 326.5 370C326.5 369.337 326.237 368.701 325.768 368.232C325.299 367.763 324.663 367.5 324 367.5C323.337 367.5 322.701 367.763 322.232 368.232C321.763 368.701 321.5 369.337 321.5 370ZM361.5 390C361.5 390.663 361.763 391.299 362.232 391.768C362.701 392.237 363.337 392.5 364 392.5C364.663 392.5 365.299 392.237 365.768 391.768C366.237 391.299 366.5 390.663 366.5 390C366.5 389.337 366.237 388.701 365.768 388.232C365.299 387.763 364.663 387.5 364 387.5C363.337 387.5 362.701 387.763 362.232 388.232C361.763 388.701 361.5 389.337 361.5 390Z" fill="black"/>
<path d="M381.5 330C381.5 330.663 381.763 331.299 382.232 331.768C382.701 332.237 383.337 332.5 384 332.5C384.663 332.5 385.299 332.237 385.768 331.768C386.237 331.299 386.5 330.663 386.5 330C386.5 329.337 386.237 328.701 385.768 328.232C385.299 327.763 384.663 327.5 384 327.5C383.337 327.5 382.701 327.763 382.232 328.232C381.763 328.701 381.5 329.337 381.5 330ZM401.5 330C401.5 330.663 401.763 331.299 402.232 331.768C402.701 332.237 403.337 332.5 404 332.5C404.663 332.5 405.299 332.237 405.768 331.768C406.237 331.299 406.5 330.663 406.5 330C406.5 329.337 406.237 328.701 405.768 328.232C405.299 327.763 404.663 327.5 404 327.5C403.337 327.5 402.701 327.763 402.232 328.232C401.763 328.701 401.5 329.337 401.5 330ZM381.5 390C381.5 390.663 381.763 391.299 382.232 391.768C382.701 392.237 383.337 392.5 384 392.5C384.663 392.5 385.299 392.237 385.768 391.768C386.237 391.299 386.5 390.663 386.5 390C386.5 389.337 386.237 388.701 385.768 388.232C385.299 387.763 384.663 387.5 384 387.5C383.337 387.5 382.701 387.763 382.232 388.232C381.763 388.701 381.5 389.337 381.5 390ZM401.5 350C401.5 350.663 401.763 351.299 402.232 351.768C402.701 352.237 403.337 352.5 404 352.5C404.663 352.5 405.299 352.237 405.768 351.768C406.237 351.299 406.5 350.663 406.5 350C406.5 349.337 406.237 348.701 405.768 348.232C405.299 347.763 404.663 347.5 404 347.5C403.337 347.5 402.701 347.763 402.232 348.232C401.763 348.701 401.5 349.337 401.5 350Z" fill="black"/>
<path d="M421.5 370C421.5 370.663 421.763 371.299 422.232 371.768C422.701 372.237 423.337 372.5 424 372.5C424.663 372.5 425.299 372.237 425.768 371.768C426.237 371.299 426.5 370.663 426.5 370C426.5 369.337 426.237 368.701 425.768 368.232C425.299 367.763 424.663 367.5 424 367.5C423.337 367.5 422.701 367.763 422.232 368.232C421.763 368.701 421.5 369.337 421.5 370Z" fill="black"/>
<path d="M441.5 350C441.5 350.663 441.763 351.299 442.232 351.768C442.701 352.237 443.337 352.5 444 352.5C444.663 352.5 445.299 352.237 445.768 351.768C446.237 351.299 446.5 350.663 446.5 350C446.5 349.337 446.237 348.701 445.768 348.232C445.299 347.763 444.663 347.5 444 347.5C443.337 347.5 442.701 347.763 442.232 348.232C441.763 348.701 441.5 349.337 441.5 350ZM461.5 310C461.5 310.663 461.763 311.299 462.232 311.768C462.701 312.237 463.337 312.5 464 312.5C464.663 312.5 465.299 312.237 465.768 311.768C466.237 311.299 466.5 310.663 466.5 310C466.5 309.337 466.237 308.701 465.768 308.232C465.299 307.763 464.663 307.5 464 307.5C463.337 307.5 462.701 307.763 462.232 308.232C461.763 308.701 461.5 309.337 461.5 310Z" fill="black"/>
<path d="M461.5 410C461.5 410.663 461.763 411.299 462.232 411.768C462.701 412.237 463.337 412.5 464 412.5C464.663 412.5 465.299 412.237 465.768 411.768C466.237 411.299 466.5 410.663 466.5 410C466.5 409.337 466.237 408.701 465.768 408.232C465.299 407.763 464.663 407.5 464 407.5C463.337 407.5 462.701 407.763 462.232 408.232C461.763 408.701 461.5 409.337 461.5 410Z" fill="black"/>
<path d="M521.5 270C521.5 270.663 521.763 271.299 522.232 271.768C522.701 272.237 523.337 272.5 524 272.5C524.663 272.5 525.299 272.237 525.768 271.768C526.237 271.299 526.5 270.663 526.5 270C526.5 269.337 526.237 268.701 525.768 268.232C525.299 267.763 524.663 267.5 524 267.5C523.337 267.5 522.701 267.763 522.232 268.232C521.763 268.701 521.5 269.337 521.5 270ZM481.5 370C481.5 370.663 481.763 371.299 482.232 371.768C482.701 372.237 483.337 372.5 484 372.5C484.663 372.5 485.299 372.237 485.768 371.768C486.237 371.299 486.5 370.663 486.5 370C486.5 369.337 486.237 368.701 485.768 368.232C485.299 367.763 484.663 367.5 484 367.5C483.337 367.5 482.701 367.763 482.232 368.232C481.763 368.701 481.5 369.337 481.5 370ZM501.5 390C501.5 390.663 501.763 391.299 502.232 391.768C502.701 392.237 503.337 392.5 504 392.5C504.663 392.5 505.299 392.237 505.768 391.768C506.237 391.299 506.5 390.663 506.5 390C506.5 389.337 506.237 388.701 505.768 388.232C505.299 387.763 504.663 387.5 504 387.5C503.337 387.5 502.701 387.763 502.232 388.232C501.763 388.701 501.5 389.337 501.5 390ZM541.5 270C541.5 270.663 541.763 271.299 542.232 271.768C542.701 272.237 543.337 272.5 544 272.5C544.663 272.5 545.299 272.237 545.768 271.768C546.237 271.299 546.5 270.663 546.5 270C546.5 269.337 546.237 268.701 545.768 268.232C545.299 267.763 544.663 267.5 544 267.5C543.337 267.5 542.701 267.763 542.232 268.232C541.763 268.701 541.5 269.337 541.5 270ZM561.5 290C561.5 290.663 561.763 291.299 562.232 291.768C562.701 292.237 563.337 292.5 564 292.5C564.663 292.5 565.299 292.237 565.768 291.768C566.237 291.299 566.5 290.663 566.5 290C566.5 289.337 566.237 288.701 565.768 288.232C565.299 287.763 564.663 287.5 564 287.5C563.337 287.5 562.701 287.763 562.232 288.232C561.763 288.701 561.5 289.337 561.5 290Z" fill="black"/>
<path d="M501.5 430C501.5 430.663 501.763 431.299 502.232 431.768C502.701 432.237 503.337 432.5 504 432.5C504.663 432.5 505.299 432.237 505.768 431.768C506.237 431.299 506.5 430.663 506.5 430C506.5 429.337 506.237 428.701 505.768 428.232C505.299 427.763 504.663 427.5 504 427.5C503.337 427.5 502.701 427.763 502.232 428.232C501.763 428.701 501.5 429.337 501.5 430Z" fill="black"/>
<path d="M521.5 390C521.5 390.663 521.763 391.299 522.232 391.768C522.701 392.237 523.337 392.5 524 392.5C524.663 392.5 525.299 392.237 525.768 391.768C526.237 391.299 526.5 390.663 526.5 390C526.5 389.337 526.237 388.701 525.768 388.232C525.299 387.763 524.663 387.5 524 387.5C523.337 387.5 522.701 387.763 522.232 388.232C521.763 388.701 521.5 389.337 521.5 390ZM561.5 430C561.5 430.663 561.763 431.299 562.232 431.768C562.701 432.237 563.337 432.5 564 432.5C564.663 432.5 565.299 432.237 565.768 431.768C566.237 431.299 566.5 430.663 566.5 430C566.5 429.337 566.237 428.701 565.768 428.232C565.299 427.763 564.663 427.5 564 427.5C563.337 427.5 562.701 427.763 562.232 428.232C561.763 428.701 561.5 429.337 561.5 430ZM541.5 490C541.5 490.663 541.763 491.299 542.232 491.768C542.701 492.237 543.337 492.5 544 492.5C544.663 492.5 545.299 492.237 545.768 491.768C546.237 491.299 546.5 490.663 546.5 490C546.5 489.337 546.237 488.701 545.768 488.232C545.299 487.763 544.663 487.5 544 487.5C543.337 487.5 542.701 487.763 542.232 488.232C541.763 488.701 541.5 489.337 541.5 490ZM561.5 330C561.5 330.663 561.763 331.299 562.232 331.768C562.701 332.237 563.337 332.5 564 332.5C564.663 332.5 565.299 332.237 565.768 331.768C566.237 331.299 566.5 330.663 566.5 330C566.5 329.337 566.237 328.701 565.768 328.232C565.299 327.763 564.663 327.5 564 327.5C563.337 327.5 562.701 327.763 562.232 328.232C561.763 328.701 561.5 329.337 561.5 330Z" fill="black"/>
</mask>
<g mask="url(#mask1_240_576)">
<path d="M99 430C99 431.326 99.5268 432.598 100.464 433.536C101.402 434.473 102.674 435 104 435C105.326 435 106.598 434.473 107.536 433.536C108.473 432.598 109 431.326 109 430C109 428.674 108.473 427.402 107.536 426.464C106.598 425.527 105.326 425 104 425C102.674 425 101.402 425.527 100.464 426.464C99.5268 427.402 99 428.674 99 430Z" fill="url(#paint0_linear_240_576)"/>
<path d="M84 490L64 470L64 450M84 490V510V530L84 550M84 490V470V450L84 430M84 550L64 530V510M84 550V570V590M84 430L64 410V390L64 370V350L64 330M84 430V410V390L104 370V350L124 330V310" stroke="url(#paint1_linear_240_576)" stroke-width="3.33"/>
<path d="M119 310C119 311.326 119.527 312.598 120.464 313.536C121.402 314.473 122.674 315 124 315C125.326 315 126.598 314.473 127.536 313.536C128.473 312.598 129 311.326 129 310C129 308.674 128.473 307.402 127.536 306.464C126.598 305.527 125.326 305 124 305C122.674 305 121.402 305.527 120.464 306.464C119.527 307.402 119 308.674 119 310ZM59 450C59 451.326 59.5268 452.598 60.4645 453.536C61.4022 454.473 62.6739 455 64 455C65.3261 455 66.5978 454.473 67.5355 453.536C68.4732 452.598 69 451.326 69 450C69 448.674 68.4732 447.402 67.5355 446.464C66.5978 445.527 65.3261 445 64 445C62.6739 445 61.4022 445.527 60.4645 446.464C59.5268 447.402 59 448.674 59 450ZM59 510C59 511.326 59.5268 512.598 60.4645 513.536C61.4022 514.473 62.6739 515 64 515C65.3261 515 66.5978 514.473 67.5355 513.536C68.4732 512.598 69 511.326 69 510C69 508.674 68.4732 507.402 67.5355 506.464C66.5978 505.527 65.3261 505 64 505C62.6739 505 61.4022 505.527 60.4645 506.464C59.5268 507.402 59 508.674 59 510ZM59 330C59 331.326 59.5268 332.598 60.4645 333.536C61.4022 334.473 62.6739 335 64 335C65.3261 335 66.5978 334.473 67.5355 333.536C68.4732 332.598 69 331.326 69 330C69 328.674 68.4732 327.402 67.5355 326.464C66.5978 325.527 65.3261 325 64 325C62.6739 325 61.4022 325.527 60.4645 326.464C59.5268 327.402 59 328.674 59 330Z" fill="url(#paint2_linear_240_576)"/>
<path d="M184 430L164 410V390L164 370M184 430V450V470V490V510L184 530V550V570L164 590M184 430V410V390L184 370V350V330M184 310L164 290L144 270M184 310V330M184 310V290M184 290L204 270M184 290V270M184 330L164 310L144 290L124 270" stroke="url(#paint3_linear_240_576)" stroke-width="3.33"/>
<path d="M179 270C179 271.326 179.527 272.598 180.464 273.536C181.402 274.473 182.674 275 184 275C185.326 275 186.598 274.473 187.536 273.536C188.473 272.598 189 271.326 189 270C189 268.674 188.473 267.402 187.536 266.464C186.598 265.527 185.326 265 184 265C182.674 265 181.402 265.527 180.464 266.464C179.527 267.402 179 268.674 179 270ZM159 370C159 371.326 159.527 372.598 160.464 373.536C161.402 374.473 162.674 375 164 375C165.326 375 166.598 374.473 167.536 373.536C168.473 372.598 169 371.326 169 370C169 368.674 168.473 367.402 167.536 366.464C166.598 365.527 165.326 365 164 365C162.674 365 161.402 365.527 160.464 366.464C159.527 367.402 159 368.674 159 370ZM139 270C139 271.326 139.527 272.598 140.464 273.536C141.402 274.473 142.674 275 144 275C145.326 275 146.598 274.473 147.536 273.536C148.473 272.598 149 271.326 149 270C149 268.674 148.473 267.402 147.536 266.464C146.598 265.527 145.326 265 144 265C142.674 265 141.402 265.527 140.464 266.464C139.527 267.402 139 268.674 139 270ZM199 270C199 271.326 199.527 272.598 200.464 273.536C201.402 274.473 202.674 275 204 275C205.326 275 206.598 274.473 207.536 273.536C208.473 272.598 209 271.326 209 270C209 268.674 208.473 267.402 207.536 266.464C206.598 265.527 205.326 265 204 265C202.674 265 201.402 265.527 200.464 266.464C199.527 267.402 199 268.674 199 270ZM119 270C119 271.326 119.527 272.598 120.464 273.536C121.402 274.473 122.674 275 124 275C125.326 275 126.598 274.473 127.536 273.536C128.473 272.598 129 271.326 129 270C129 268.674 128.473 267.402 127.536 266.464C126.598 265.527 125.326 265 124 265C122.674 265 121.402 265.527 120.464 266.464C119.527 267.402 119 268.674 119 270Z" fill="url(#paint4_linear_240_576)"/>
<path d="M-1 450C-1 451.326 -0.473204 452.598 0.464478 453.536C1.40216 454.473 2.67392 455 4 455C5.32608 455 6.59784 454.473 7.53552 453.536C8.4732 452.598 9 451.326 9 450C9 448.674 8.4732 447.402 7.53552 446.464C6.59784 445.527 5.32608 445 4 445C2.67392 445 1.40216 445.527 0.464478 446.464C-0.473204 447.402 -1 448.674 -1 450ZM-21 490C-21 491.326 -20.4732 492.598 -19.5355 493.536C-18.5978 494.473 -17.3261 495 -16 495C-14.6739 495 -13.4022 494.473 -12.4645 493.536C-11.5268 492.598 -11 491.326 -11 490C-11 488.674 -11.5268 487.402 -12.4645 486.464C-13.4022 485.527 -14.6739 485 -16 485C-17.3261 485 -18.5978 485.527 -19.5355 486.464C-20.4732 487.402 -21 488.674 -21 490ZM-1 530C-1 531.326 -0.473204 532.598 0.464478 533.536C1.40216 534.473 2.67392 535 4 535C5.32608 535 6.59784 534.473 7.53552 533.536C8.4732 532.598 9 531.326 9 530C9 528.674 8.4732 527.402 7.53552 526.464C6.59784 525.527 5.32608 525 4 525C2.67392 525 1.40216 525.527 0.464478 526.464C-0.473204 527.402 -1 528.674 -1 530ZM-21 430C-21 431.326 -20.4732 432.598 -19.5355 433.536C-18.5978 434.473 -17.3261 435 -16 435C-14.6739 435 -13.4022 434.473 -12.4645 433.536C-11.5268 432.598 -11 431.326 -11 430C-11 428.674 -11.5268 427.402 -12.4645 426.464C-13.4022 425.527 -14.6739 425 -16 425C-17.3261 425 -18.5978 425.527 -19.5355 426.464C-20.4732 427.402 -21 428.674 -21 430Z" fill="url(#paint5_linear_240_576)"/>
<path d="M204 390L224 370L244 350M204 390L204 410V430V450M204 390V370V350M204 350L224 330M204 350V330V310M204 450L224 430V410L224 390M204 450V470V490V510V530V550V570L204 590" stroke="url(#paint6_linear_240_576)" stroke-width="3.33"/>
<path d="M199 310C199 311.326 199.527 312.598 200.464 313.536C201.402 314.473 202.674 315 204 315C205.326 315 206.598 314.473 207.536 313.536C208.473 312.598 209 311.326 209 310C209 308.674 208.473 307.402 207.536 306.464C206.598 305.527 205.326 305 204 305C202.674 305 201.402 305.527 200.464 306.464C199.527 307.402 199 308.674 199 310ZM239 350C239 351.326 239.527 352.598 240.464 353.536C241.402 354.473 242.674 355 244 355C245.326 355 246.598 354.473 247.536 353.536C248.473 352.598 249 351.326 249 350C249 348.674 248.473 347.402 247.536 346.464C246.598 345.527 245.326 345 244 345C242.674 345 241.402 345.527 240.464 346.464C239.527 347.402 239 348.674 239 350ZM219 330C219 331.326 219.527 332.598 220.464 333.536C221.402 334.473 222.674 335 224 335C225.326 335 226.598 334.473 227.536 333.536C228.473 332.598 229 331.326 229 330C229 328.674 228.473 327.402 227.536 326.464C226.598 325.527 225.326 325 224 325C222.674 325 221.402 325.527 220.464 326.464C219.527 327.402 219 328.674 219 330ZM219 390C219 391.326 219.527 392.598 220.464 393.536C221.402 394.473 222.674 395 224 395C225.326 395 226.598 394.473 227.536 393.536C228.473 392.598 229 391.326 229 390C229 388.674 228.473 387.402 227.536 386.464C226.598 385.527 225.326 385 224 385C222.674 385 221.402 385.527 220.464 386.464C219.527 387.402 219 388.674 219 390Z" fill="url(#paint7_linear_240_576)"/>
<path d="M224 490V470V450L244 430M224 490V510L224 530V550V570V590M224 490L244 470" stroke="url(#paint8_linear_240_576)" stroke-width="3.33"/>
<path d="M239 470C239 471.326 239.527 472.598 240.464 473.536C241.402 474.473 242.674 475 244 475C245.326 475 246.598 474.473 247.536 473.536C248.473 472.598 249 471.326 249 470C249 468.674 248.473 467.402 247.536 466.464C246.598 465.527 245.326 465 244 465C242.674 465 241.402 465.527 240.464 466.464C239.527 467.402 239 468.674 239 470ZM239 430C239 431.326 239.527 432.598 240.464 433.536C241.402 434.473 242.674 435 244 435C245.326 435 246.598 434.473 247.536 433.536C248.473 432.598 249 431.326 249 430C249 428.674 248.473 427.402 247.536 426.464C246.598 425.527 245.326 425 244 425C242.674 425 241.402 425.527 240.464 426.464C239.527 427.402 239 428.674 239 430Z" fill="url(#paint9_linear_240_576)"/>
<path d="M344 430L324 410M344 430L364 450M344 430V410V390M344 390L324 370M344 390V370V350L364 330M364 450V430V410V390M364 450V470V490L344 510L344 530L324 550L304 570V590" stroke="url(#paint10_linear_240_576)" stroke-width="3.33"/>
<path d="M359 330C359 331.326 359.527 332.598 360.464 333.536C361.402 334.473 362.674 335 364 335C365.326 335 366.598 334.473 367.536 333.536C368.473 332.598 369 331.326 369 330C369 328.674 368.473 327.402 367.536 326.464C366.598 325.527 365.326 325 364 325C362.674 325 361.402 325.527 360.464 326.464C359.527 327.402 359 328.674 359 330ZM319 410C319 411.326 319.527 412.598 320.464 413.536C321.402 414.473 322.674 415 324 415C325.326 415 326.598 414.473 327.536 413.536C328.473 412.598 329 411.326 329 410C329 408.674 328.473 407.402 327.536 406.464C326.598 405.527 325.326 405 324 405C322.674 405 321.402 405.527 320.464 406.464C319.527 407.402 319 408.674 319 410ZM319 370C319 371.326 319.527 372.598 320.464 373.536C321.402 374.473 322.674 375 324 375C325.326 375 326.598 374.473 327.536 373.536C328.473 372.598 329 371.326 329 370C329 368.674 328.473 367.402 327.536 366.464C326.598 365.527 325.326 365 324 365C322.674 365 321.402 365.527 320.464 366.464C319.527 367.402 319 368.674 319 370ZM359 390C359 391.326 359.527 392.598 360.464 393.536C361.402 394.473 362.674 395 364 395C365.326 395 366.598 394.473 367.536 393.536C368.473 392.598 369 391.326 369 390C369 388.674 368.473 387.402 367.536 386.464C366.598 385.527 365.326 385 364 385C362.674 385 361.402 385.527 360.464 386.464C359.527 387.402 359 388.674 359 390Z" fill="url(#paint11_linear_240_576)"/>
<path d="M384 350L404 330M384 350V370L404 390M384 350V330M404 410L384 390M404 410V430V450V470V490L384 510L384 530L364 550L344 570V590M404 410V390M404 390V370V350" stroke="url(#paint12_linear_240_576)" stroke-width="3.33"/>
<path d="M379 330C379 331.326 379.527 332.598 380.464 333.536C381.402 334.473 382.674 335 384 335C385.326 335 386.598 334.473 387.536 333.536C388.473 332.598 389 331.326 389 330C389 328.674 388.473 327.402 387.536 326.464C386.598 325.527 385.326 325 384 325C382.674 325 381.402 325.527 380.464 326.464C379.527 327.402 379 328.674 379 330ZM399 330C399 331.326 399.527 332.598 400.464 333.536C401.402 334.473 402.674 335 404 335C405.326 335 406.598 334.473 407.536 333.536C408.473 332.598 409 331.326 409 330C409 328.674 408.473 327.402 407.536 326.464C406.598 325.527 405.326 325 404 325C402.674 325 401.402 325.527 400.464 326.464C399.527 327.402 399 328.674 399 330ZM379 390C379 391.326 379.527 392.598 380.464 393.536C381.402 394.473 382.674 395 384 395C385.326 395 386.598 394.473 387.536 393.536C388.473 392.598 389 391.326 389 390C389 388.674 388.473 387.402 387.536 386.464C386.598 385.527 385.326 385 384 385C382.674 385 381.402 385.527 380.464 386.464C379.527 387.402 379 388.674 379 390ZM399 350C399 351.326 399.527 352.598 400.464 353.536C401.402 354.473 402.674 355 404 355C405.326 355 406.598 354.473 407.536 353.536C408.473 352.598 409 351.326 409 350C409 348.674 408.473 347.402 407.536 346.464C406.598 345.527 405.326 345 404 345C402.674 345 401.402 345.527 400.464 346.464C399.527 347.402 399 348.674 399 350Z" fill="url(#paint13_linear_240_576)"/>
<path d="M364 590V570L384 550L404 530V510L424 490V470V450V430V410V390V370" stroke="url(#paint14_linear_240_576)" stroke-width="3.33"/>
<path d="M419 370C419 371.326 419.527 372.598 420.464 373.536C421.402 374.473 422.674 375 424 375C425.326 375 426.598 374.473 427.536 373.536C428.473 372.598 429 371.326 429 370C429 368.674 428.473 367.402 427.536 366.464C426.598 365.527 425.326 365 424 365C422.674 365 421.402 365.527 420.464 366.464C419.527 367.402 419 368.674 419 370Z" fill="url(#paint15_linear_240_576)"/>
<path d="M444 370L464 350V330V310M444 370V390V410V430V450V470V490L424 510V530L404 550L384 570V590M444 370V350" stroke="url(#paint16_linear_240_576)" stroke-width="3.33"/>
<path d="M439 350C439 351.326 439.527 352.598 440.464 353.536C441.402 354.473 442.674 355 444 355C445.326 355 446.598 354.473 447.536 353.536C448.473 352.598 449 351.326 449 350C449 348.674 448.473 347.402 447.536 346.464C446.598 345.527 445.326 345 444 345C442.674 345 441.402 345.527 440.464 346.464C439.527 347.402 439 348.674 439 350ZM459 310C459 311.326 459.527 312.598 460.464 313.536C461.402 314.473 462.674 315 464 315C465.326 315 466.598 314.473 467.536 313.536C468.473 312.598 469 311.326 469 310C469 308.674 468.473 307.402 467.536 306.464C466.598 305.527 465.326 305 464 305C462.674 305 461.402 305.527 460.464 306.464C459.527 307.402 459 308.674 459 310Z" fill="url(#paint17_linear_240_576)"/>
<path d="M404 590L404 570L424 550L444 530V510L464 490V470V450V430V410" stroke="url(#paint18_linear_240_576)" stroke-width="3.33"/>
<path d="M459 410C459 411.326 459.527 412.598 460.464 413.536C461.402 414.473 462.674 415 464 415C465.326 415 466.598 414.473 467.536 413.536C468.473 412.598 469 411.326 469 410C469 408.674 468.473 407.402 467.536 406.464C466.598 405.527 465.326 405 464 405C462.674 405 461.402 405.527 460.464 406.464C459.527 407.402 459 408.674 459 410Z" fill="url(#paint19_linear_240_576)"/>
<path d="M484 390V370M484 390V410M484 390L504 370M484 410L504 390M484 410V430V450L484 470V490L464 510V530L444 550L424 570V590M504 350L524 330L544 310V290V270M504 350V370M504 350V330L524 310V290V270M504 370L524 350L544 330L564 310V290" stroke="url(#paint20_linear_240_576)" stroke-width="3.33"/>
<path d="M499 430C499 431.326 499.527 432.598 500.464 433.536C501.402 434.473 502.674 435 504 435C505.326 435 506.598 434.473 507.536 433.536C508.473 432.598 509 431.326 509 430C509 428.674 508.473 427.402 507.536 426.464C506.598 425.527 505.326 425 504 425C502.674 425 501.402 425.527 500.464 426.464C499.527 427.402 499 428.674 499 430Z" fill="url(#paint21_linear_240_576)"/>
<path d="M524 470L544 450L564 430M524 470V490L504 510L504 530M524 470V450V430V410M504 530L524 510L544 490M504 530L484 550L464 570V590M524 410L544 390V370V350L564 330M524 410V390" stroke="url(#paint22_linear_240_576)" stroke-width="3.33"/>
<path d="M519 390C519 391.326 519.527 392.598 520.464 393.536C521.402 394.473 522.674 395 524 395C525.326 395 526.598 394.473 527.536 393.536C528.473 392.598 529 391.326 529 390C529 388.674 528.473 387.402 527.536 386.464C526.598 385.527 525.326 385 524 385C522.674 385 521.402 385.527 520.464 386.464C519.527 387.402 519 388.674 519 390ZM559 430C559 431.326 559.527 432.598 560.464 433.536C561.402 434.473 562.674 435 564 435C565.326 435 566.598 434.473 567.536 433.536C568.473 432.598 569 431.326 569 430C569 428.674 568.473 427.402 567.536 426.464C566.598 425.527 565.326 425 564 425C562.674 425 561.402 425.527 560.464 426.464C559.527 427.402 559 428.674 559 430ZM539 490C539 491.326 539.527 492.598 540.464 493.536C541.402 494.473 542.674 495 544 495C545.326 495 546.598 494.473 547.536 493.536C548.473 492.598 549 491.326 549 490C549 488.674 548.473 487.402 547.536 486.464C546.598 485.527 545.326 485 544 485C542.674 485 541.402 485.527 540.464 486.464C539.527 487.402 539 488.674 539 490ZM559 330C559 331.326 559.527 332.598 560.464 333.536C561.402 334.473 562.674 335 564 335C565.326 335 566.598 334.473 567.536 333.536C568.473 332.598 569 331.326 569 330C569 328.674 568.473 327.402 567.536 326.464C566.598 325.527 565.326 325 564 325C562.674 325 561.402 325.527 560.464 326.464C559.527 327.402 559 328.674 559 330Z" fill="url(#paint23_linear_240_576)"/>
</g>
</g>
<defs>
<linearGradient id="paint0_linear_240_576" x1="102.229" y1="430.036" x2="105.369" y2="430.207" gradientUnits="userSpaceOnUse">
<stop stop-color="#EB1C24"/>
<stop offset="1" stop-color="#EB731C"/>
</linearGradient>
<linearGradient id="paint1_linear_240_576" x1="83.3725" y1="451.007" x2="102.269" y2="451.227" gradientUnits="userSpaceOnUse">
<stop stop-color="#EB1C24"/>
<stop offset="1" stop-color="#EB731C"/>
</linearGradient>
<linearGradient id="paint2_linear_240_576" x1="81.6012" y1="410.755" x2="103.643" y2="411.155" gradientUnits="userSpaceOnUse">
<stop stop-color="#EB1C24"/>
<stop offset="1" stop-color="#EB731C"/>
</linearGradient>
<linearGradient id="paint3_linear_240_576" x1="149.83" y1="431.151" x2="175.025" y2="431.494" gradientUnits="userSpaceOnUse">
<stop stop-color="#EB1C24"/>
<stop offset="1" stop-color="#EB731C"/>
</linearGradient>
<linearGradient id="paint4_linear_240_576" x1="148.059" y1="320.396" x2="176.352" y2="321.655" gradientUnits="userSpaceOnUse">
<stop stop-color="#EB1C24"/>
<stop offset="1" stop-color="#EB731C"/>
</linearGradient>
<linearGradient id="paint5_linear_240_576" x1="-11.3138" y1="480.396" x2="-1.86605" y2="480.536" gradientUnits="userSpaceOnUse">
<stop stop-color="#EB1C24"/>
<stop offset="1" stop-color="#EB731C"/>
</linearGradient>
<linearGradient id="paint6_linear_240_576" x1="216.915" y1="451.007" x2="229.514" y2="451.105" gradientUnits="userSpaceOnUse">
<stop stop-color="#EB1C24"/>
<stop offset="1" stop-color="#EB731C"/>
</linearGradient>
<linearGradient id="paint7_linear_240_576" x1="215.144" y1="350.324" x2="230.879" y2="350.799" gradientUnits="userSpaceOnUse">
<stop stop-color="#EB1C24"/>
<stop offset="1" stop-color="#EB731C"/>
</linearGradient>
<linearGradient id="paint8_linear_240_576" x1="230.457" y1="510.576" x2="236.757" y2="510.618" gradientUnits="userSpaceOnUse">
<stop stop-color="#EB1C24"/>
<stop offset="1" stop-color="#EB731C"/>
</linearGradient>
<linearGradient id="paint9_linear_240_576" x1="242.229" y1="450.18" x2="245.378" y2="450.214" gradientUnits="userSpaceOnUse">
<stop stop-color="#EB1C24"/>
<stop offset="1" stop-color="#EB731C"/>
</linearGradient>
<linearGradient id="paint10_linear_240_576" x1="323.372" y1="460.935" x2="342.269" y2="461.172" gradientUnits="userSpaceOnUse">
<stop stop-color="#EB1C24"/>
<stop offset="1" stop-color="#EB731C"/>
</linearGradient>
<linearGradient id="paint11_linear_240_576" x1="335.144" y1="370.324" x2="350.879" y2="370.799" gradientUnits="userSpaceOnUse">
<stop stop-color="#EB1C24"/>
<stop offset="1" stop-color="#EB731C"/>
</linearGradient>
<linearGradient id="paint12_linear_240_576" x1="363.372" y1="460.935" x2="382.269" y2="461.172" gradientUnits="userSpaceOnUse">
<stop stop-color="#EB1C24"/>
<stop offset="1" stop-color="#EB731C"/>
</linearGradient>
<linearGradient id="paint13_linear_240_576" x1="388.686" y1="360.252" x2="398.131" y2="360.472" gradientUnits="userSpaceOnUse">
<stop stop-color="#EB1C24"/>
<stop offset="1" stop-color="#EB731C"/>
</linearGradient>
<linearGradient id="paint14_linear_240_576" x1="383.372" y1="480.791" x2="402.268" y2="481.072" gradientUnits="userSpaceOnUse">
<stop stop-color="#EB1C24"/>
<stop offset="1" stop-color="#EB731C"/>
</linearGradient>
<linearGradient id="paint15_linear_240_576" x1="422.229" y1="370.036" x2="425.369" y2="370.207" gradientUnits="userSpaceOnUse">
<stop stop-color="#EB1C24"/>
<stop offset="1" stop-color="#EB731C"/>
</linearGradient>
<linearGradient id="paint16_linear_240_576" x1="409.83" y1="451.007" x2="435.023" y2="451.399" gradientUnits="userSpaceOnUse">
<stop stop-color="#EB1C24"/>
<stop offset="1" stop-color="#EB731C"/>
</linearGradient>
<linearGradient id="paint17_linear_240_576" x1="448.686" y1="330.18" x2="458.126" y2="330.488" gradientUnits="userSpaceOnUse">
<stop stop-color="#EB1C24"/>
<stop offset="1" stop-color="#EB731C"/>
</linearGradient>
<linearGradient id="paint18_linear_240_576" x1="423.372" y1="500.647" x2="442.266" y2="500.99" gradientUnits="userSpaceOnUse">
<stop stop-color="#EB1C24"/>
<stop offset="1" stop-color="#EB731C"/>
</linearGradient>
<linearGradient id="paint19_linear_240_576" x1="462.229" y1="410.036" x2="465.369" y2="410.207" gradientUnits="userSpaceOnUse">
<stop stop-color="#EB1C24"/>
<stop offset="1" stop-color="#EB731C"/>
</linearGradient>
<linearGradient id="paint20_linear_240_576" x1="469.202" y1="431.151" x2="513.277" y2="432.2" gradientUnits="userSpaceOnUse">
<stop stop-color="#EB1C24"/>
<stop offset="1" stop-color="#EB731C"/>
</linearGradient>
<linearGradient id="paint21_linear_240_576" x1="502.229" y1="430.036" x2="505.369" y2="430.207" gradientUnits="userSpaceOnUse">
<stop stop-color="#EB1C24"/>
<stop offset="1" stop-color="#EB731C"/>
</linearGradient>
<linearGradient id="paint22_linear_240_576" x1="496.287" y1="460.935" x2="527.773" y2="461.594" gradientUnits="userSpaceOnUse">
<stop stop-color="#EB1C24"/>
<stop offset="1" stop-color="#EB731C"/>
</linearGradient>
<linearGradient id="paint23_linear_240_576" x1="535.144" y1="410.612" x2="550.889" y2="410.863" gradientUnits="userSpaceOnUse">
<stop stop-color="#EB1C24"/>
<stop offset="1" stop-color="#EB731C"/>
</linearGradient>
</defs>
</svg>
