<svg width="1356" height="972" viewBox="0 0 1356 972" fill="none" xmlns="http://www.w3.org/2000/svg">
<path d="M277.162 249.56C272.511 249.56 268.726 251.741 268.726 254.433V717.258C268.726 719.95 272.511 722.131 277.162 722.131H1078.45C1083.12 722.131 1086.89 719.95 1086.89 717.258V254.433C1086.89 251.741 1083.12 249.56 1078.45 249.56H277.162ZM1078.45 732.797H277.162C262.333 732.797 250.27 725.826 250.27 717.258V254.433C250.27 245.865 262.333 238.894 277.162 238.894H1078.45C1093.29 238.894 1105.36 245.865 1105.36 254.433V717.258C1105.36 725.826 1093.29 732.797 1078.45 732.797Z" fill="#EB1C24" fill-opacity="0.25"/>
<path d="M1166.78 397.85H1111.33V393.088H1164.69L1205.54 348.689H1272.62L1312.94 269.715L1317.18 271.886L1275.54 353.451H1207.64L1166.78 397.85Z" fill="#EB1C24" fill-opacity="0.25"/>
<path d="M1105.36 401.764V389.179H1117.94V401.764H1105.36Z" fill="#EB1C24" fill-opacity="0.25"/>
<path d="M1324.36 276.231C1327.05 270.947 1324.96 264.472 1319.67 261.771C1314.39 259.07 1307.9 261.169 1305.21 266.453C1302.51 271.742 1304.61 278.217 1309.89 280.913C1315.18 283.614 1321.66 281.514 1324.36 276.231Z" fill="#100606"/>
<path d="M1306.47 267.112C1304.14 271.684 1305.96 277.311 1310.54 279.646C1315.11 281.986 1320.73 280.162 1323.07 275.584C1325.42 271.007 1323.59 265.385 1319.01 263.045C1314.44 260.71 1308.81 262.534 1306.47 267.112C1308.81 262.534 1304.14 271.684 1306.47 267.112ZM1325.62 276.886C1322.56 282.863 1315.22 285.246 1309.24 282.19C1303.26 279.14 1300.88 271.787 1303.93 265.81C1306.99 259.828 1314.34 257.45 1320.32 260.501C1326.3 263.556 1328.67 270.904 1325.62 276.886C1328.67 270.904 1322.56 282.863 1325.62 276.886Z" fill="#EB1C24" fill-opacity="0.25"/>
<path d="M1213.82 424.493H1111.33V419.728H1211.85L1241.57 390.002H1326.43V394.767H1243.55L1213.82 424.493Z" fill="#EB1C24" fill-opacity="0.25"/>
<path d="M1105.36 428.403V415.818H1117.94V428.403H1105.36Z" fill="#EB1C24" fill-opacity="0.25"/>
<path d="M1325.83 403.127C1331.76 403.127 1336.58 398.312 1336.58 392.38C1336.58 386.442 1331.76 381.633 1325.83 381.633C1319.9 381.633 1315.08 386.442 1315.08 392.38C1315.08 398.312 1319.9 403.127 1325.83 403.127Z" fill="#100606"/>
<path d="M1325.83 383.062C1320.69 383.062 1316.51 387.242 1316.51 392.38C1316.51 397.518 1320.69 401.698 1325.83 401.698C1330.97 401.698 1335.15 397.518 1335.15 392.38C1335.15 387.242 1330.97 383.062 1325.83 383.062C1330.97 383.062 1320.69 383.062 1325.83 383.062ZM1325.83 404.558C1319.11 404.558 1313.65 399.094 1313.65 392.38C1313.65 385.666 1319.11 380.202 1325.83 380.202C1332.54 380.202 1338.01 385.666 1338.01 392.38C1338.01 399.094 1332.54 404.558 1325.83 404.558C1332.54 404.558 1319.11 404.558 1325.83 404.558Z" fill="#EB1C24" fill-opacity="0.25"/>
<path d="M1231.72 470.218H1188.87L1156.16 449.352H1111.33V444.591H1157.55L1190.26 465.453H1231.72V470.218Z" fill="#EB1C24" fill-opacity="0.25"/>
<path d="M1105.36 453.262V440.682H1117.94V453.262H1105.36Z" fill="#EB1C24" fill-opacity="0.25"/>
<path d="M1231.11 478.583C1237.04 478.583 1241.86 473.771 1241.86 467.839C1241.86 461.901 1237.04 457.089 1231.11 457.089C1225.17 457.089 1220.36 461.901 1220.36 467.839C1220.36 473.771 1225.17 478.583 1231.11 478.583Z" fill="#100606"/>
<path d="M1231.11 458.52C1225.97 458.52 1221.79 462.699 1221.79 467.838C1221.79 472.977 1225.97 477.156 1231.11 477.156C1236.25 477.156 1240.42 472.977 1240.42 467.838C1240.42 462.699 1236.25 458.52 1231.11 458.52C1236.25 458.52 1225.97 458.52 1231.11 458.52ZM1231.11 480.014C1224.4 480.014 1218.93 474.553 1218.93 467.838C1218.93 461.123 1224.4 455.662 1231.11 455.662C1237.82 455.662 1243.29 461.123 1243.29 467.838C1243.29 474.553 1237.82 480.014 1231.11 480.014C1237.82 480.014 1224.4 480.014 1231.11 480.014Z" fill="#EB1C24" fill-opacity="0.25"/>
<path d="M1326.43 501.882H1189.07L1137.77 474.257H1111.33V469.493H1138.97L1190.28 497.121H1326.43V501.882Z" fill="#EB1C24" fill-opacity="0.25"/>
<path d="M1105.36 478.162V465.582H1117.94V478.162H1105.36Z" fill="#EB1C24" fill-opacity="0.25"/>
<path d="M1325.83 510.249C1331.76 510.249 1336.58 505.437 1336.58 499.499C1336.58 493.562 1331.76 488.749 1325.83 488.749C1319.9 488.749 1315.08 493.562 1315.08 499.499C1315.08 505.437 1319.9 510.249 1325.83 510.249Z" fill="#100606"/>
<path d="M1325.83 490.182C1320.69 490.182 1316.51 494.361 1316.51 499.5C1316.51 504.639 1320.69 508.818 1325.83 508.818C1330.97 508.818 1335.15 504.639 1335.15 499.5C1335.15 494.361 1330.97 490.182 1325.83 490.182C1330.97 490.182 1320.69 490.182 1325.83 490.182ZM1325.83 511.676C1319.11 511.676 1313.65 506.215 1313.65 499.5C1313.65 492.785 1319.11 487.325 1325.83 487.325C1332.54 487.325 1338.01 492.785 1338.01 499.5C1338.01 506.215 1332.54 511.676 1325.83 511.676C1332.54 511.676 1319.11 511.676 1325.83 511.676Z" fill="#EB1C24" fill-opacity="0.25"/>
<path d="M1255.39 591.477H1111.33V586.711H1255.39V591.477Z" fill="#EB1C24" fill-opacity="0.25"/>
<path d="M1105.36 595.381V582.801H1117.94V595.381H1105.36Z" fill="#EB1C24" fill-opacity="0.25"/>
<path d="M1254.79 599.84C1260.73 599.84 1265.54 595.028 1265.54 589.091C1265.54 583.159 1260.73 578.341 1254.79 578.341C1248.85 578.341 1244.04 583.159 1244.04 589.091C1244.04 595.028 1248.85 599.84 1254.79 599.84Z" fill="#100606"/>
<path d="M1254.79 579.773C1249.65 579.773 1245.47 583.952 1245.47 589.091C1245.47 594.23 1249.65 598.409 1254.79 598.409C1259.93 598.409 1264.11 594.23 1264.11 589.091C1264.11 583.952 1259.93 579.773 1254.79 579.773C1259.93 579.773 1249.65 579.773 1254.79 579.773ZM1254.79 601.267C1248.07 601.267 1242.61 595.806 1242.61 589.091C1242.61 582.376 1248.07 576.915 1254.79 576.915C1261.5 576.915 1266.96 582.376 1266.96 589.091C1266.96 595.806 1261.5 601.267 1254.79 601.267C1261.5 601.267 1248.07 601.267 1254.79 601.267Z" fill="#EB1C24" fill-opacity="0.25"/>
<path d="M1128.9 497.541H1111.33V492.775H1128.9V497.541Z" fill="#EB1C24" fill-opacity="0.25"/>
<path d="M1105.36 501.451V488.871H1117.94V501.451H1105.36Z" fill="#EB1C24" fill-opacity="0.25"/>
<path d="M1165.48 520.041H1111.33V515.276H1165.48V520.041Z" fill="#EB1C24" fill-opacity="0.25"/>
<path d="M1105.36 523.945V511.365H1117.94V523.945H1105.36Z" fill="#EB1C24" fill-opacity="0.25"/>
<path d="M1164.87 528.405C1170.81 528.405 1175.62 523.593 1175.62 517.656C1175.62 511.723 1170.81 506.906 1164.87 506.906C1158.94 506.906 1154.12 511.723 1154.12 517.656C1154.12 523.593 1158.94 528.405 1164.87 528.405Z" fill="#100606"/>
<path d="M1164.87 508.338C1159.73 508.338 1155.55 512.517 1155.55 517.656C1155.55 522.795 1159.73 526.974 1164.87 526.974C1170.01 526.974 1174.19 522.795 1174.19 517.656C1174.19 512.517 1170.01 508.338 1164.87 508.338C1170.01 508.338 1159.73 508.338 1164.87 508.338ZM1164.87 529.832C1158.16 529.832 1152.7 524.371 1152.7 517.656C1152.7 510.941 1158.16 505.48 1164.87 505.48C1171.59 505.48 1177.05 510.941 1177.05 517.656C1177.05 524.371 1171.59 529.832 1164.87 529.832C1171.59 529.832 1158.16 529.832 1164.87 529.832Z" fill="#EB1C24" fill-opacity="0.25"/>
<path d="M1227.84 540.954H1111.33V536.194H1227.84V540.954Z" fill="#EB1C24" fill-opacity="0.25"/>
<path d="M1105.36 544.864V532.284H1117.94V544.864H1105.36Z" fill="#EB1C24" fill-opacity="0.25"/>
<path d="M1227.23 549.324C1233.17 549.324 1237.98 544.512 1237.98 538.574C1237.98 532.637 1233.17 527.825 1227.23 527.825C1221.3 527.825 1216.48 532.637 1216.48 538.574C1216.48 544.512 1221.3 549.324 1227.23 549.324Z" fill="#100606"/>
<path d="M1227.23 529.255C1222.09 529.255 1217.91 533.435 1217.91 538.573C1217.91 543.712 1222.09 547.892 1227.23 547.892C1232.37 547.892 1236.55 543.712 1236.55 538.573C1236.55 533.435 1232.37 529.255 1227.23 529.255C1232.37 529.255 1222.09 529.255 1227.23 529.255ZM1227.23 550.749C1220.52 550.749 1215.05 545.289 1215.05 538.573C1215.05 531.858 1220.52 526.398 1227.23 526.398C1233.94 526.398 1239.41 531.858 1239.41 538.573C1239.41 545.289 1233.94 550.749 1227.23 550.749C1233.94 550.749 1220.52 550.749 1227.23 550.749Z" fill="#EB1C24" fill-opacity="0.25"/>
<path d="M1342.39 606.257L1303.93 567.796H1111.33V563.031H1305.91L1345.77 602.886L1342.39 606.257Z" fill="#EB1C24" fill-opacity="0.25"/>
<path d="M1105.36 571.704V559.118H1117.94V571.704H1105.36Z" fill="#EB1C24" fill-opacity="0.25"/>
<path d="M1336.05 611.741C1340.25 615.935 1347.06 615.935 1351.25 611.741C1355.45 607.54 1355.45 600.737 1351.25 596.536C1347.06 592.342 1340.25 592.342 1336.05 596.536C1331.86 600.737 1331.86 607.54 1336.05 611.741Z" fill="#100606"/>
<path d="M1350.24 597.551C1346.61 593.916 1340.69 593.916 1337.06 597.551C1333.42 601.185 1333.42 607.097 1337.06 610.732C1340.69 614.367 1346.61 614.367 1350.24 610.732C1353.87 607.097 1353.87 601.185 1350.24 597.551C1353.87 601.185 1346.61 593.916 1350.24 597.551ZM1335.04 612.749C1330.29 608.004 1330.29 600.278 1335.04 595.528C1339.79 590.784 1347.51 590.784 1352.26 595.528C1357.01 600.278 1357.01 608.004 1352.26 612.749C1347.51 617.499 1339.79 617.499 1335.04 612.749C1339.79 617.499 1330.29 608.004 1335.04 612.749Z" fill="#EB1C24" fill-opacity="0.25"/>
<path d="M42.8898 712.169L38.6465 710.002L80.2955 628.434H148.195L189.041 584.035H244.492V588.801H191.131L150.284 633.199H83.2123L42.8898 712.169Z" fill="#EB1C24" fill-opacity="0.25"/>
<path d="M250.468 580.125V592.71H237.887V580.125H250.468Z" fill="#EB1C24" fill-opacity="0.25"/>
<path d="M31.4724 705.657C28.7738 710.941 30.8709 717.417 36.157 720.119C41.4431 722.815 47.9182 720.715 50.6173 715.431C53.3158 710.147 51.2178 703.67 45.9327 700.974C40.6466 698.272 34.1714 700.372 31.4724 705.657Z" fill="#100606"/>
<path d="M49.3443 714.782C51.6809 710.203 49.8592 704.582 45.2825 702.244C40.7052 699.905 35.0831 701.73 32.7455 706.304C30.4078 710.883 32.2295 716.504 36.8073 718.842C41.3845 721.181 47.0067 719.356 49.3443 714.782C51.6809 710.203 47.0067 719.356 49.3443 714.782ZM30.1994 705.007C33.2526 699.029 40.6031 696.643 46.582 699.697C52.5619 702.752 54.9431 710.1 51.8899 716.079C48.8372 722.063 41.4867 724.443 35.5068 721.388C29.5273 718.334 27.1467 710.986 30.1994 705.007C33.2526 699.029 27.1467 710.986 30.1994 705.007Z" fill="#EB1C24" fill-opacity="0.25"/>
<path d="M114.246 591.891H29.3887V587.126H112.272L142.001 557.397H244.493V562.163H143.975L114.246 591.891Z" fill="#EB1C24" fill-opacity="0.25"/>
<path d="M250.468 553.487V566.072H237.887V553.487H250.468Z" fill="#EB1C24" fill-opacity="0.25"/>
<path d="M29.9976 578.761C24.0622 578.761 19.249 583.574 19.249 589.511C19.249 595.443 24.0622 600.255 29.9976 600.255C35.9319 600.255 40.7445 595.443 40.7445 589.511C40.7445 583.574 35.9319 578.761 29.9976 578.761Z" fill="#100606"/>
<path d="M29.998 598.829C35.1368 598.829 39.3158 594.65 39.3158 589.511C39.3158 584.367 35.1368 580.187 29.998 580.187C24.8581 580.187 20.6791 584.367 20.6791 589.511C20.6791 594.65 24.8581 598.829 29.998 598.829C35.1368 598.829 24.8581 598.829 29.998 598.829ZM29.998 577.33C36.7111 577.33 42.1746 582.796 42.1746 589.511C42.1746 596.221 36.7111 601.687 29.998 601.687C23.2833 601.687 17.8203 596.221 17.8203 589.511C17.8203 582.796 23.2833 577.33 29.998 577.33C36.7111 577.33 23.2833 577.33 29.998 577.33Z" fill="#EB1C24" fill-opacity="0.25"/>
<path d="M244.493 537.298H198.271L165.566 516.432H124.106V511.672H166.955L199.661 532.538H244.493V537.298Z" fill="#EB1C24" fill-opacity="0.25"/>
<path d="M250.468 528.628V541.208H237.887V528.628H250.468Z" fill="#EB1C24" fill-opacity="0.25"/>
<path d="M124.715 503.302C118.779 503.302 113.967 508.119 113.967 514.051C113.967 519.989 118.779 524.801 124.715 524.801C130.65 524.801 135.462 519.989 135.462 514.051C135.462 508.119 130.65 503.302 124.715 503.302Z" fill="#100606"/>
<path d="M124.715 523.37C129.855 523.37 134.034 519.19 134.034 514.051C134.034 508.913 129.855 504.733 124.715 504.733C119.575 504.733 115.397 508.913 115.397 514.051C115.397 519.19 119.575 523.37 124.715 523.37C129.855 523.37 119.575 523.37 124.715 523.37ZM124.715 501.876C131.429 501.876 136.892 507.336 136.892 514.051C136.892 520.767 131.429 526.227 124.715 526.227C118.001 526.227 112.538 520.767 112.538 514.051C112.538 507.336 118.001 501.876 124.715 501.876C131.429 501.876 118.001 501.876 124.715 501.876Z" fill="#EB1C24" fill-opacity="0.25"/>
<path d="M244.493 512.398H216.851L165.543 484.77H29.3887V480.009H166.745L218.052 507.632H244.493V512.398Z" fill="#EB1C24" fill-opacity="0.25"/>
<path d="M250.468 503.727V516.307H237.887V503.727H250.468Z" fill="#EB1C24" fill-opacity="0.25"/>
<path d="M29.9976 471.639C24.0622 471.639 19.249 476.451 19.249 482.388C19.249 488.32 24.0622 493.138 29.9976 493.138C35.9319 493.138 40.7445 488.32 40.7445 482.388C40.7445 476.451 35.9319 471.639 29.9976 471.639Z" fill="#100606"/>
<path d="M29.998 491.707C35.1368 491.707 39.3158 487.528 39.3158 482.389C39.3158 477.25 35.1368 473.071 29.998 473.071C24.8581 473.071 20.6791 477.25 20.6791 482.389C20.6791 487.528 24.8581 491.707 29.998 491.707C35.1368 491.707 24.8581 491.707 29.998 491.707ZM29.998 470.213C36.7111 470.213 42.1746 475.674 42.1746 482.389C42.1746 489.104 36.7111 494.564 29.998 494.564C23.2833 494.564 17.8203 489.104 17.8203 482.389C17.8203 475.674 23.2833 470.213 29.998 470.213C36.7111 470.213 23.2833 470.213 29.998 470.213Z" fill="#EB1C24" fill-opacity="0.25"/>
<path d="M244.491 395.179H100.425V390.413H244.491V395.179Z" fill="#EB1C24" fill-opacity="0.25"/>
<path d="M250.468 386.509V399.089H237.887V386.509H250.468Z" fill="#EB1C24" fill-opacity="0.25"/>
<path d="M101.035 382.049C95.0998 382.049 90.2871 386.861 90.2871 392.798C90.2871 398.731 95.0998 403.548 101.035 403.548C106.969 403.548 111.783 398.731 111.783 392.798C111.783 386.861 106.969 382.049 101.035 382.049Z" fill="#100606"/>
<path d="M101.035 402.116C106.174 402.116 110.353 397.937 110.353 392.798C110.353 387.659 106.174 383.48 101.035 383.48C95.8952 383.48 91.7162 387.659 91.7162 392.798C91.7162 397.937 95.8952 402.116 101.035 402.116C106.174 402.116 95.8952 402.116 101.035 402.116ZM101.035 380.617C107.749 380.617 113.212 386.083 113.212 392.798C113.212 399.508 107.749 404.974 101.035 404.974C94.3209 404.974 88.8574 399.508 88.8574 392.798C88.8574 386.083 94.3209 380.617 101.035 380.617C107.749 380.617 94.3209 380.617 101.035 380.617Z" fill="#EB1C24" fill-opacity="0.25"/>
<path d="M244.493 489.114H226.924V484.349H244.493V489.114Z" fill="#EB1C24" fill-opacity="0.25"/>
<path d="M250.468 480.439V493.02H237.887V480.439H250.468Z" fill="#EB1C24" fill-opacity="0.25"/>
<path d="M244.492 466.615H190.342V461.849H244.492V466.615Z" fill="#EB1C24" fill-opacity="0.25"/>
<path d="M250.468 457.944V470.524H237.887V457.944H250.468Z" fill="#EB1C24" fill-opacity="0.25"/>
<path d="M190.951 453.485C185.015 453.485 180.202 458.297 180.202 464.234C180.202 470.166 185.015 474.979 190.951 474.979C196.886 474.979 201.698 470.166 201.698 464.234C201.698 458.297 196.886 453.485 190.951 453.485Z" fill="#100606"/>
<path d="M190.951 473.552C196.089 473.552 200.269 469.373 200.269 464.234C200.269 459.095 196.089 454.916 190.951 454.916C185.811 454.916 181.632 459.095 181.632 464.234C181.632 469.373 185.811 473.552 190.951 473.552C196.089 473.552 185.811 473.552 190.951 473.552ZM190.951 452.058C197.664 452.058 203.127 457.519 203.127 464.234C203.127 470.949 197.664 476.41 190.951 476.41C184.236 476.41 178.773 470.949 178.773 464.234C178.773 457.519 184.236 452.058 190.951 452.058C197.664 452.058 184.236 452.058 190.951 452.058Z" fill="#EB1C24" fill-opacity="0.25"/>
<path d="M244.492 445.696H127.983V440.935H244.492V445.696Z" fill="#EB1C24" fill-opacity="0.25"/>
<path d="M250.468 437.026V449.606H237.887V437.026H250.468Z" fill="#EB1C24" fill-opacity="0.25"/>
<path d="M128.592 432.566C122.657 432.566 117.844 437.378 117.844 443.316C117.844 449.248 122.657 454.065 128.592 454.065C134.527 454.065 139.34 449.248 139.34 443.316C139.34 437.378 134.527 432.566 128.592 432.566Z" fill="#100606"/>
<path d="M128.592 452.635C133.731 452.635 137.911 448.455 137.911 443.316C137.911 438.177 133.731 433.998 128.592 433.998C123.453 433.998 119.273 438.177 119.273 443.316C119.273 448.455 123.453 452.635 128.592 452.635C133.731 452.635 123.453 452.635 128.592 452.635ZM128.592 431.141C135.305 431.141 140.769 436.601 140.769 443.316C140.769 450.031 135.305 455.492 128.592 455.492C121.878 455.492 116.415 450.031 116.415 443.316C116.415 436.601 121.878 431.141 128.592 431.141C135.305 431.141 121.878 431.141 128.592 431.141Z" fill="#EB1C24" fill-opacity="0.25"/>
<path d="M244.492 418.861H49.912L10.0557 379.005L13.4247 375.634L51.8856 414.095H244.492V418.861Z" fill="#EB1C24" fill-opacity="0.25"/>
<path d="M250.468 410.186V422.766H237.887V410.186H250.468Z" fill="#EB1C24" fill-opacity="0.25"/>
<path d="M19.7711 370.149C15.5745 365.954 8.76794 365.954 4.57131 370.149C0.374669 374.349 0.374669 381.152 4.57131 385.353C8.76794 389.548 15.5745 389.548 19.7711 385.353C23.9677 381.152 23.9677 374.349 19.7711 370.149Z" fill="#100606"/>
<path d="M5.58194 384.341C9.21647 387.971 15.1264 387.971 18.7604 384.341C22.3944 380.706 22.3944 374.795 18.7604 371.16C15.1264 367.525 9.21647 367.525 5.58194 371.16C1.94742 374.795 1.94742 380.706 5.58194 384.341C9.21647 387.971 1.94742 380.706 5.58194 384.341ZM20.7817 369.143C25.5296 373.887 25.5296 381.614 20.7817 386.358C16.0344 391.108 8.30797 391.108 3.56115 386.358C-1.18722 381.614 -1.18671 373.887 3.56063 369.143C8.30797 364.393 16.0344 364.393 20.7817 369.143C25.5296 373.887 16.0344 364.393 20.7817 369.143Z" fill="#EB1C24" fill-opacity="0.25"/>
<path d="M565.054 233.234H560.289V197.534L533.581 170.829V11.5709H538.345V168.856L565.054 195.561V233.234Z" fill="#EB1C24" fill-opacity="0.25"/>
<path d="M568.963 239.208H556.382V226.627H568.963V239.208Z" fill="#EB1C24" fill-opacity="0.25"/>
<path d="M546.714 12.179C546.714 6.24058 541.901 1.42866 535.966 1.42866C530.031 1.42866 525.219 6.24058 525.219 12.179C525.219 18.1119 530.031 22.9238 535.966 22.9238C541.901 22.9238 546.714 18.1119 546.714 12.179Z" fill="#100606"/>
<path d="M526.647 12.1753C526.647 17.3181 530.827 21.497 535.966 21.497C541.106 21.497 545.285 17.3181 545.285 12.1753C545.285 7.03802 541.106 2.85918 535.966 2.85918C530.827 2.85918 526.647 7.03802 526.647 12.1753C526.647 7.03802 526.647 17.3181 526.647 12.1753ZM548.144 12.1753C548.144 18.89 542.68 24.356 535.966 24.356C529.253 24.356 523.789 18.89 523.789 12.1753C523.789 5.46068 529.253 0.000230789 535.966 0.000230789C542.68 0.000230789 548.144 5.46068 548.144 12.1753C548.144 5.46068 548.144 18.89 548.144 12.1753Z" fill="#EB1C24" fill-opacity="0.25"/>
<path d="M599.649 233.234H594.885V180.17L571.994 157.282V102.346H576.759V155.306L599.649 178.2V233.234Z" fill="#EB1C24" fill-opacity="0.25"/>
<path d="M603.558 239.208H590.978V226.627H603.558V239.208Z" fill="#EB1C24" fill-opacity="0.25"/>
<path d="M585.123 102.953C585.123 97.0209 580.311 92.2087 574.376 92.2087C568.441 92.2087 563.628 97.0209 563.628 102.953C563.628 108.89 568.441 113.703 574.376 113.703C580.311 113.703 585.123 108.89 585.123 102.953Z" fill="#100606"/>
<path d="M565.058 102.953C565.058 108.092 569.237 112.272 574.377 112.272C579.516 112.272 583.695 108.092 583.695 102.953C583.695 97.8146 579.516 93.6351 574.377 93.6351C569.237 93.6351 565.058 97.8146 565.058 102.953C565.058 97.8146 565.058 108.092 565.058 102.953ZM586.554 102.953C586.554 109.669 581.091 115.134 574.377 115.134C567.663 115.134 562.199 109.669 562.199 102.953C562.199 96.2434 567.663 90.7779 574.377 90.7779C581.091 90.7779 586.554 96.2434 586.554 102.953C586.554 96.2434 586.554 109.669 586.554 102.953Z" fill="#EB1C24" fill-opacity="0.25"/>
<path d="M632.012 233.234H627.248V11.5709H632.012V233.234Z" fill="#EB1C24" fill-opacity="0.25"/>
<path d="M635.921 239.208H623.341V226.627H635.921V239.208Z" fill="#EB1C24" fill-opacity="0.25"/>
<path d="M640.38 12.179C640.38 6.24058 635.567 1.42866 629.632 1.42866C623.697 1.42866 618.885 6.24058 618.885 12.179C618.885 18.1119 623.697 22.9238 629.632 22.9238C635.567 22.9238 640.38 18.1119 640.38 12.179Z" fill="#100606"/>
<path d="M620.313 12.1753C620.313 17.3181 624.493 21.497 629.632 21.497C634.772 21.497 638.951 17.3181 638.951 12.1753C638.951 7.03802 634.772 2.85918 629.632 2.85918C624.493 2.85918 620.313 7.03802 620.313 12.1753C620.313 7.03802 620.313 17.3181 620.313 12.1753ZM641.81 12.1753C641.81 18.89 636.347 24.356 629.632 24.356C622.918 24.356 617.455 18.89 617.455 12.1753C617.455 5.46068 622.918 0.000230789 629.632 0.000230789C636.347 0.000230789 641.81 5.46068 641.81 12.1753C641.81 5.46068 641.81 18.89 641.81 12.1753Z" fill="#EB1C24" fill-opacity="0.25"/>
<path d="M662.798 233.234H658.033V137.473H662.798V233.234Z" fill="#EB1C24" fill-opacity="0.25"/>
<path d="M666.705 239.208H654.124V226.627H666.705V239.208Z" fill="#EB1C24" fill-opacity="0.25"/>
<path d="M671.163 138.08C671.163 132.148 666.351 127.33 660.415 127.33C654.481 127.33 649.668 132.148 649.668 138.08C649.668 144.017 654.481 148.83 660.415 148.83C666.351 148.83 671.163 144.017 671.163 138.08Z" fill="#100606"/>
<path d="M651.097 138.08C651.097 143.219 655.276 147.398 660.415 147.398C665.555 147.398 669.734 143.219 669.734 138.08C669.734 132.941 665.555 128.761 660.415 128.761C655.276 128.761 651.097 132.941 651.097 138.08C651.097 132.941 651.097 143.219 651.097 138.08ZM672.593 138.08C672.593 144.795 667.129 150.255 660.415 150.255C653.701 150.255 648.238 144.795 648.238 138.08C648.238 131.365 653.701 125.904 660.415 125.904C667.129 125.904 672.593 131.365 672.593 138.08C672.593 131.365 672.593 144.795 672.593 138.08Z" fill="#EB1C24" fill-opacity="0.25"/>
<path d="M794.352 233.234H789.59V195.561L816.3 168.856V11.5709H821.063V170.829L794.352 197.534V233.234Z" fill="#EB1C24" fill-opacity="0.25"/>
<path d="M798.263 239.208H785.678V226.627H798.263V239.208Z" fill="#EB1C24" fill-opacity="0.25"/>
<path d="M829.43 12.1795C829.43 6.24107 824.618 1.42914 818.68 1.42914C812.747 1.42914 807.93 6.24107 807.93 12.1795C807.93 18.1124 812.747 22.9243 818.68 22.9243C824.618 22.9243 829.43 18.1124 829.43 12.1795Z" fill="#100606"/>
<path d="M809.364 12.1749C809.364 17.3176 813.543 21.4965 818.68 21.4965C823.817 21.4965 828.002 17.3176 828.002 12.1749C828.002 7.03753 823.817 2.85869 818.68 2.85869C813.543 2.85869 809.364 7.03753 809.364 12.1749C809.364 7.03753 809.364 17.3176 809.364 12.1749ZM830.855 12.1749C830.855 18.8895 825.395 24.3555 818.68 24.3555C811.965 24.3555 806.505 18.8895 806.505 12.1749C806.505 5.46019 811.965 -0.000257492 818.68 -0.000257492C825.395 -0.000257492 830.855 5.46019 830.855 12.1749C830.855 5.46019 830.855 18.8895 830.855 12.1749Z" fill="#EB1C24" fill-opacity="0.25"/>
<path d="M759.76 233.234H754.994V178.2L777.883 155.306V102.346H782.648V157.282L759.76 180.17V233.234Z" fill="#EB1C24" fill-opacity="0.25"/>
<path d="M763.665 239.208H751.085V226.627H763.665V239.208Z" fill="#EB1C24" fill-opacity="0.25"/>
<path d="M791.013 102.953C791.013 97.0209 786.201 92.2087 780.269 92.2087C774.332 92.2087 769.52 97.0209 769.52 102.953C769.52 108.89 774.332 113.703 780.269 113.703C786.201 113.703 791.013 108.89 791.013 102.953Z" fill="#100606"/>
<path d="M770.945 102.953C770.945 108.092 775.125 112.272 780.269 112.272C785.407 112.272 789.582 108.092 789.582 102.953C789.582 97.8146 785.407 93.6351 780.269 93.6351C775.125 93.6351 770.945 97.8146 770.945 102.953C770.945 97.8146 770.945 108.092 770.945 102.953ZM792.444 102.953C792.444 109.669 786.979 115.134 780.269 115.134C773.553 115.134 768.088 109.669 768.088 102.953C768.088 96.2434 773.553 90.7779 780.269 90.7779C786.979 90.7779 792.444 96.2434 792.444 102.953C792.444 96.2434 792.444 109.669 792.444 102.953Z" fill="#EB1C24" fill-opacity="0.25"/>
<path d="M727.389 233.235H722.632V11.5714H727.389V233.235Z" fill="#EB1C24" fill-opacity="0.25"/>
<path d="M731.302 239.208H718.722V226.627H731.302V239.208Z" fill="#EB1C24" fill-opacity="0.25"/>
<path d="M735.766 12.1795C735.766 6.24107 730.949 1.42914 725.016 1.42914C719.078 1.42914 714.266 6.24107 714.266 12.1795C714.266 18.1124 719.078 22.9243 725.016 22.9243C730.949 22.9243 735.766 18.1124 735.766 12.1795Z" fill="#100606"/>
<path d="M715.698 12.1749C715.698 17.3176 719.877 21.4965 725.014 21.4965C730.151 21.4965 734.33 17.3176 734.33 12.1749C734.33 7.03753 730.151 2.85869 725.014 2.85869C719.877 2.85869 715.698 7.03753 715.698 12.1749C715.698 7.03753 715.698 17.3176 715.698 12.1749ZM737.189 12.1749C737.189 18.8895 731.729 24.3555 725.014 24.3555C718.299 24.3555 712.839 18.8895 712.839 12.1749C712.839 5.46019 718.299 -0.000257492 725.014 -0.000257492C731.729 -0.000257492 737.189 5.46019 737.189 12.1749C737.189 5.46019 737.189 18.8895 737.189 12.1749Z" fill="#EB1C24" fill-opacity="0.25"/>
<path d="M696.611 233.234H691.846V137.473H696.611V233.234Z" fill="#EB1C24" fill-opacity="0.25"/>
<path d="M700.517 239.208H687.937V226.627H700.517V239.208Z" fill="#EB1C24" fill-opacity="0.25"/>
<path d="M704.975 138.08C704.975 132.148 700.163 127.33 694.226 127.33C688.294 127.33 683.481 132.148 683.481 138.08C683.481 144.017 688.294 148.83 694.226 148.83C700.163 148.83 704.975 144.017 704.975 138.08Z" fill="#100606"/>
<path d="M684.907 138.08C684.907 143.219 689.087 147.398 694.225 147.398C699.364 147.398 703.544 143.219 703.544 138.08C703.544 132.941 699.364 128.761 694.225 128.761C689.087 128.761 684.907 132.941 684.907 138.08C684.907 132.941 684.907 143.219 684.907 138.08ZM706.406 138.08C706.406 144.795 700.941 150.255 694.225 150.255C687.515 150.255 682.05 144.795 682.05 138.08C682.05 131.365 687.515 125.904 694.225 125.904C700.941 125.904 706.406 131.365 706.406 138.08C706.406 131.365 706.406 144.795 706.406 138.08Z" fill="#EB1C24" fill-opacity="0.25"/>
<path d="M538.345 960.437H533.581V801.179L560.29 774.468V738.771H565.054V776.444L538.345 803.15V960.437Z" fill="#EB1C24" fill-opacity="0.25"/>
<path d="M556.382 732.797H568.963V745.377H556.382V732.797Z" fill="#EB1C24" fill-opacity="0.25"/>
<path d="M525.216 959.825C525.216 965.762 530.028 970.574 535.963 970.574C541.899 970.574 546.711 965.762 546.711 959.825C546.711 953.892 541.899 949.075 535.963 949.075C530.028 949.075 525.216 953.892 525.216 959.825Z" fill="#100606"/>
<path d="M545.283 959.824C545.283 954.686 541.104 950.506 535.964 950.506C530.825 950.506 526.645 954.686 526.645 959.824C526.645 964.963 530.825 969.143 535.964 969.143C541.104 969.143 545.283 964.963 545.283 959.824C545.283 954.686 545.283 964.963 545.283 959.824ZM523.787 959.824C523.787 953.109 529.251 947.649 535.964 947.649C542.678 947.649 548.142 953.109 548.142 959.824C548.142 966.54 542.678 972 535.964 972C529.251 972 523.787 966.54 523.787 959.824C523.787 953.109 523.787 966.54 523.787 959.824Z" fill="#EB1C24" fill-opacity="0.25"/>
<path d="M576.759 869.659H571.994V814.724L594.885 791.835V738.772H599.649V793.805L576.759 816.7V869.659Z" fill="#EB1C24" fill-opacity="0.25"/>
<path d="M590.978 732.797H603.558V745.377H590.978V732.797Z" fill="#EB1C24" fill-opacity="0.25"/>
<path d="M563.628 869.052C563.628 874.985 568.441 879.797 574.376 879.797C580.311 879.797 585.123 874.985 585.123 869.052C585.123 863.115 580.311 858.303 574.376 858.303C568.441 858.303 563.628 863.115 563.628 869.052Z" fill="#100606"/>
<path d="M583.695 869.051C583.695 863.913 579.516 859.733 574.377 859.733C569.237 859.733 565.058 863.913 565.058 869.051C565.058 874.19 569.237 878.37 574.377 878.37C579.516 878.37 583.695 874.19 583.695 869.051C583.695 863.913 583.695 874.19 583.695 869.051ZM562.199 869.051C562.199 862.336 567.663 856.871 574.377 856.871C581.091 856.871 586.554 862.336 586.554 869.051C586.554 875.762 581.091 881.227 574.377 881.227C567.663 881.227 562.199 875.762 562.199 869.051C562.199 862.336 562.199 875.762 562.199 869.051Z" fill="#EB1C24" fill-opacity="0.25"/>
<path d="M632.012 960.437H627.248V738.771H632.012V960.437Z" fill="#EB1C24" fill-opacity="0.25"/>
<path d="M623.341 732.797H635.921V745.377H623.341V732.797Z" fill="#EB1C24" fill-opacity="0.25"/>
<path d="M618.883 959.825C618.883 965.762 623.695 970.574 629.63 970.574C635.566 970.574 640.378 965.762 640.378 959.825C640.378 953.892 635.566 949.075 629.63 949.075C623.695 949.075 618.883 953.892 618.883 959.825Z" fill="#100606"/>
<path d="M638.949 959.824C638.949 954.686 634.77 950.506 629.63 950.506C624.491 950.506 620.312 954.686 620.312 959.824C620.312 964.963 624.491 969.143 629.63 969.143C634.77 969.143 638.949 964.963 638.949 959.824C638.949 954.686 638.949 964.963 638.949 959.824ZM617.453 959.824C617.453 953.109 622.917 947.649 629.63 947.649C636.344 947.649 641.808 953.109 641.808 959.824C641.808 966.54 636.344 972 629.63 972C622.917 972 617.453 966.54 617.453 959.824C617.453 953.109 617.453 966.54 617.453 959.824Z" fill="#EB1C24" fill-opacity="0.25"/>
<path d="M662.798 834.532H658.033V738.771H662.798V834.532Z" fill="#EB1C24" fill-opacity="0.25"/>
<path d="M654.124 732.797H666.705V745.377H654.124V732.797Z" fill="#EB1C24" fill-opacity="0.25"/>
<path d="M649.668 833.925C649.668 839.857 654.481 844.669 660.415 844.669C666.351 844.669 671.163 839.857 671.163 833.925C671.163 827.988 666.351 823.175 660.415 823.175C654.481 823.175 649.668 827.988 649.668 833.925Z" fill="#100606"/>
<path d="M669.734 833.926C669.734 828.787 665.555 824.608 660.415 824.608C655.276 824.608 651.097 828.787 651.097 833.926C651.097 839.065 655.276 843.244 660.415 843.244C665.555 843.244 669.734 839.065 669.734 833.926C669.734 828.787 669.734 839.065 669.734 833.926ZM648.238 833.926C648.238 827.211 653.701 821.75 660.415 821.75C667.129 821.75 672.593 827.211 672.593 833.926C672.593 840.641 667.129 846.102 660.415 846.102C653.701 846.102 648.238 840.641 648.238 833.926C648.238 827.211 648.238 840.641 648.238 833.926Z" fill="#EB1C24" fill-opacity="0.25"/>
<path d="M821.064 960.437H816.298V803.15L789.588 776.444V738.771H794.353V774.468L821.064 801.179V960.437Z" fill="#EB1C24" fill-opacity="0.25"/>
<path d="M785.678 732.797H798.263V745.377H785.678V732.797Z" fill="#EB1C24" fill-opacity="0.25"/>
<path d="M807.93 959.825C807.93 965.762 812.747 970.574 818.679 970.574C824.617 970.574 829.429 965.762 829.429 959.825C829.429 953.892 824.617 949.075 818.679 949.075C812.747 949.075 807.93 953.892 807.93 959.825Z" fill="#100606"/>
<path d="M827.997 959.824C827.997 954.686 823.817 950.506 818.679 950.506C813.54 950.506 809.36 954.686 809.36 959.824C809.36 964.963 813.54 969.143 818.679 969.143C823.817 969.143 827.997 964.963 827.997 959.824C827.997 954.686 827.997 964.963 827.997 959.824ZM806.503 959.824C806.503 953.109 811.963 947.649 818.679 947.649C825.394 947.649 830.854 953.109 830.854 959.824C830.854 966.54 825.394 972 818.679 972C811.963 972 806.503 966.54 806.503 959.824C806.503 953.109 806.503 966.54 806.503 959.824Z" fill="#EB1C24" fill-opacity="0.25"/>
<path d="M782.648 869.659H777.883V816.7L754.994 793.805V738.772H759.76V791.835L782.648 814.724V869.659Z" fill="#EB1C24" fill-opacity="0.25"/>
<path d="M751.085 732.797H763.665V745.377H751.085V732.797Z" fill="#EB1C24" fill-opacity="0.25"/>
<path d="M769.52 869.052C769.52 874.985 774.332 879.797 780.269 879.797C786.201 879.797 791.013 874.985 791.013 869.052C791.013 863.115 786.201 858.303 780.269 858.303C774.332 858.303 769.52 863.115 769.52 869.052Z" fill="#100606"/>
<path d="M789.582 869.051C789.582 863.913 785.407 859.733 780.269 859.733C775.125 859.733 770.945 863.913 770.945 869.051C770.945 874.19 775.125 878.37 780.269 878.37C785.407 878.37 789.582 874.19 789.582 869.051C789.582 863.913 789.582 874.19 789.582 869.051ZM768.088 869.051C768.088 862.336 773.553 856.871 780.269 856.871C786.979 856.871 792.444 862.336 792.444 869.051C792.444 875.762 786.979 881.227 780.269 881.227C773.553 881.227 768.088 875.762 768.088 869.051C768.088 862.336 768.088 875.762 768.088 869.051Z" fill="#EB1C24" fill-opacity="0.25"/>
<path d="M727.393 960.437H722.633V738.771H727.393V960.437Z" fill="#EB1C24" fill-opacity="0.25"/>
<path d="M718.722 732.797H731.302V745.377H718.722V732.797Z" fill="#EB1C24" fill-opacity="0.25"/>
<path d="M714.263 959.825C714.263 965.762 719.075 970.574 725.012 970.574C730.95 970.574 735.762 965.762 735.762 959.825C735.762 953.892 730.95 949.075 725.012 949.075C719.075 949.075 714.263 953.892 714.263 959.825Z" fill="#100606"/>
<path d="M734.331 959.824C734.331 954.686 730.151 950.506 725.012 950.506C719.874 950.506 715.694 954.686 715.694 959.824C715.694 964.963 719.874 969.143 725.012 969.143C730.151 969.143 734.331 964.963 734.331 959.824C734.331 954.686 734.331 964.963 734.331 959.824ZM712.837 959.824C712.837 953.109 718.297 947.649 725.012 947.649C731.728 947.649 737.188 953.109 737.188 959.824C737.188 966.54 731.728 972 725.012 972C718.297 972 712.837 966.54 712.837 959.824C712.837 953.109 712.837 966.54 712.837 959.824Z" fill="#EB1C24" fill-opacity="0.25"/>
<path d="M696.611 834.532H691.846V738.771H696.611V834.532Z" fill="#EB1C24" fill-opacity="0.25"/>
<path d="M687.937 732.797H700.517V745.377H687.937V732.797Z" fill="#EB1C24" fill-opacity="0.25"/>
<path d="M683.481 833.925C683.481 839.857 688.294 844.669 694.226 844.669C700.163 844.669 704.975 839.857 704.975 833.925C704.975 827.988 700.163 823.175 694.226 823.175C688.294 823.175 683.481 827.988 683.481 833.925Z" fill="#100606"/>
<path d="M703.544 833.926C703.544 828.787 699.364 824.608 694.225 824.608C689.087 824.608 684.907 828.787 684.907 833.926C684.907 839.065 689.087 843.244 694.225 843.244C699.364 843.244 703.544 839.065 703.544 833.926C703.544 828.787 703.544 839.065 703.544 833.926ZM682.05 833.926C682.05 827.211 687.515 821.75 694.225 821.75C700.941 821.75 706.406 827.211 706.406 833.926C706.406 840.641 700.941 846.102 694.225 846.102C687.515 846.102 682.05 840.641 682.05 833.926C682.05 827.211 682.05 840.641 682.05 833.926Z" fill="#EB1C24" fill-opacity="0.25"/>
</svg>
